<?xml version="1.0" encoding="utf-8"?>
<!-- Generator: Adobe Illustrator 21.0.0, SVG Export Plug-In . SVG Version: 6.00 Build 0)  -->
<svg version="1.1" id="Layer_1" xmlns="http://www.w3.org/2000/svg" xmlns:xlink="http://www.w3.org/1999/xlink" x="0px" y="0px"
	 viewBox="0 0 390.7 101.2" style="enable-background:new 0 0 390.7 101.2;" xml:space="preserve">
<style type="text/css">
	.st0{fill:#FFFFFF;}
	.st1{fill:#235382;}
</style>
<g>
	<path class="st0" d="M55.3,81c0,1.5,0,5.4,0,7.6c0,1.2-0.4,2-1.1,2.6c-5.3,4.3-12.2,7-19.5,7c-17.2,0-30.9-14-30.9-31.1
		c0-17.1,13.7-30.8,30.9-30.8c7.4,0,14.2,2.5,19.6,6.9c0.5,0.5,1,1.2,1,2.5c0,2.1,0,5.9,0,6.8c0,1.8-0.7,2.7-2.7,0.2
		c-4.3-5.3-10.7-9-17.9-9c-12.8,0-23.1,10.7-23.1,23.4s10.3,23.7,23.1,23.7c7.7,0,14.5-4.3,18.7-10.2C54,79.7,55.3,78.9,55.3,81z"/>
	<path class="st0" d="M138.4,41.6v51.2c0,2.1-1.7,3.8-3.8,3.8h-0.2c-2.1,0-3.8-1.7-3.8-3.8V41.6c0-2.1,1.7-3.8,3.8-3.8h0.2
		C136.7,37.8,138.4,39.5,138.4,41.6z"/>
	<path class="st0" d="M200.9,60.6v32.2c0,2.1-1.7,3.8-3.8,3.8h-0.2c-2.1,0-3.8-1.7-3.8-3.8V61.1c0-12.2-9.2-17.4-17.7-17.4
		c-11.2,0-16.6,5-16.6,15.2c0,1.5,0,33.9,0,33.9c0,2.1-1.7,3.8-3.8,3.8h-0.4c-2.1,0-3.8-1.7-3.8-3.8l-0.1-51.3
		c0-2.1,1.7-3.7,3.8-3.7h0.5c1.8,0,3.7,1.4,3.7,3.7c0,0.4,0,0.1,0,0.4c0,0.6,0.6,0.7,1,0.4c4.2-4.7,10.9-5.9,15.7-5.9
		C186.5,36.3,200.9,41.6,200.9,60.6z"/>
	<path class="st0" d="M227.9,98.2c-10.1,0-16.3-4.8-20.5-12.2c-0.1-0.2-1.6-3.8,1.7-5.5c4.1-2.1,5.9,2.6,7,4.1
		c2.6,3.6,6,6.3,11.8,6.3c5.5,0,10.1-5.4,10.4-10.2c0.4-4.4-2-7.1-7.6-10.8c-5-3.2-9.6-3.6-13.5-6.5c-2.9-2.3-6-5.8-6-12
		c0-4.7,2-9.1,5.8-12c1.6-1.2,3.4-1.8,5.4-2.5c2.5-0.6,5.4-0.6,6.9-0.2c4.5,1.1,9.9,3.9,11.8,7.2c0.9,1.6,0.6,3.7-1.1,4.9
		c-2.8,2.2-5.4-1.4-7.1-2.8c-1.2-1.1-2.1-2.2-5.9-2.2c-3.2,0-7.5,2.8-7.5,7.6c0,3.8,3.6,5.8,4.7,6.4c3.1,1.6,17.9,7.9,20.9,15
		C249.3,83.2,243.3,98.2,227.9,98.2z"/>
	<path class="st0" d="M280.4,41.6v0.2c0,2.1-1.7,3.8-3.8,3.8c0,0-4.5,0-5.6,0c-1.2,0-1.6,0.2-1.6,1.4s0,45.8,0,45.8
		c0,2.1-1.7,3.8-3.8,3.8h-0.2c-2.1,0-3.8-1.7-3.8-3.8c0,0,0-44.6,0-45.7c0-1-0.4-1.5-1.4-1.5c-0.9,0-5.9,0-5.9,0
		c-2.1,0-3.8-1.7-3.8-3.8v-0.2c0-2.1,1.7-3.8,3.8-3.8c0,0,4.8,0,5.8,0c1,0,1.5-0.7,1.5-2c0-1.4,0-25,0-25c0-2.1,1.7-3.8,3.8-3.8h0.2
		c2.1,0,3.8,1.7,3.8,3.8c0,0,0,24.3,0,25.4c0,1,0.5,1.6,1.5,1.6c1,0,5.8,0,5.8,0C278.6,37.8,280.4,39.5,280.4,41.6z"/>
	<path class="st0" d="M314.4,36.3c8.5,0,16.9,3.4,21.7,9.5c0.4,0.6,1.6,1,1.6-0.6c0-0.1,0-2.1,0-3.6c0-2.1,1.7-3.8,3.8-3.8h0.2
		c2.1,0,3.8,1.7,3.8,3.8v51.3c0,2.1-1.7,3.8-3.8,3.8h-0.2c-2.1,0-3.8-1.7-3.8-3.8c0,0,0-2.8,0-3.7c0-1.5-0.9-1.2-1.1-0.9
		c-5.3,6.3-13.3,9.8-22,9.8c-17.2,0-31.3-13.6-31.3-30.8C283.3,50.2,297.2,36.3,314.4,36.3z M314.6,90.8c12.8,0,23-10.7,23-23.4
		s-10.4-23.7-23.2-23.7c-12.9,0-23.2,10.9-23.2,23.7S301.7,90.8,314.6,90.8z"/>
	<path class="st0" d="M385.6,41.6v0.2c0,2.1-1.7,3.8-3.8,3.8c0,0-4.5,0-5.6,0c-1.2,0-1.6,0.2-1.6,1.4s0,45.8,0,45.8
		c0,2.1-1.7,3.8-3.8,3.8h-0.2c-2.1,0-3.8-1.7-3.8-3.8c0,0,0-44.6,0-45.7c0-1-0.4-1.5-1.4-1.5c-0.9,0-5.9,0-5.9,0
		c-2.1,0-3.8-1.7-3.8-3.8v-0.2c0-2.1,1.7-3.8,3.8-3.8c0,0,4.8,0,5.8,0c1,0,1.5-0.7,1.5-2c0-1.4,0-25,0-25c0-2.1,1.7-3.8,3.8-3.8h0.2
		c2.1,0,3.8,1.7,3.8,3.8c0,0,0,24.3,0,25.4c0,1,0.5,1.6,1.5,1.6c1,0,5.8,0,5.8,0C383.9,37.8,385.6,39.5,385.6,41.6z"/>
	<g>
		<path class="st0" d="M91.4,41.9c13.4,0,24.4,10.1,25.8,23.1c0.1-0.9,0.1-1.8,0.1-2.8c0-14.2-11.6-25.8-25.9-25.8
			c-14.2,0-25.8,11.6-25.8,25.8c0,0.9,0.1,1.9,0.1,2.8C67.2,52,78.1,41.9,91.4,41.9z"/>
		<path class="st1" d="M91.4,93.5c-13.4,0-24.4-10.2-25.7-23.3c-0.1,0.8-0.1,1.7-0.1,2.5c0,14.2,11.6,25.8,25.8,25.8
			c14.3,0,25.9-11.6,25.9-25.8c0-0.8,0-1.7-0.1-2.5C116,83.2,104.9,93.5,91.4,93.5z"/>
	</g>
</g>
</svg>
